HIERARCHY
ROOT hip
{
  OFFSET 0 0 0
  CHANNELS 6 Xposition Yposition Zposition Zrotation Yrotation Xrotation
  JOINT abdomen
  {
    OFFSET 0 20.6881 -0.73152
    CHANNELS 3 Zrotation Xrotation Yrotation
    JOINT chest
    {
      OFFSET 0 11.7043 -0.48768
      CHANNELS 3 Zrotation Xrotation Yrotation
      JOINT neck
      {
        OFFSET 0 22.1894 -2.19456
        CHANNELS 3 Zrotation Xrotation Yrotation
        JOINT head
        {
          OFFSET -0.24384 7.07133 1.2192
          CHANNELS 3 Zrotation Xrotation Yrotation
          JOINT leftEye
          {
            OFFSET 4.14528 8.04674 8.04672
            CHANNELS 3 Zrotation Xrotation Yrotation
            End Site
            {
              OFFSET 1 0 0
            }
          }
          JOINT rightEye
          {
            OFFSET -3.6576 8.04674 8.04672
            CHANNELS 3 Zrotation Xrotation Yrotation
            End Site
            {
              OFFSET 1 0 0
            }
          }
        }
      }
      JOINT rCollar
      {
        OFFSET -2.68224 19.2634 -4.8768
        CHANNELS 3 Zrotation Xrotation Yrotation
        JOINT rShldr
        {
          OFFSET -8.77824 -1.95073 1.46304
          CHANNELS 3 Zrotation Xrotation Yrotation
          JOINT rForeArm
          {
            OFFSET -28.1742 -1.7115 0.48768
            CHANNELS 3 Zrotation Xrotation Yrotation
            JOINT rHand
            {
              OFFSET -22.5879 0.773209 7.07136
              CHANNELS 3 Zrotation Xrotation Yrotation
              JOINT rThumb1
              {
                OFFSET -1.2192 -0.487915 3.41376
                CHANNELS 3 Zrotation Xrotation Yrotation
                JOINT rThumb2
                {
                  OFFSET -3.37035 -0.52449 3.41376
                  CHANNELS 3 Zrotation Xrotation Yrotation
                  End Site
                  {
                    OFFSET -1.78271 -1.18214 1.43049
                  }
                }
              }
              JOINT rIndex1
              {
                OFFSET -7.75947 0.938293 5.60832
                CHANNELS 3 Zrotation Xrotation Yrotation
                JOINT rIndex2
                {
                  OFFSET -2.54057 -0.884171 1.56538
                  CHANNELS 3 Zrotation Xrotation Yrotation
                  End Site
                  {
                    OFFSET -1.62519 -0.234802 1.16502
                  }
                }
              }
              JOINT rMid1
              {
                OFFSET -8.24714 1.18213 3.41376
                CHANNELS 3 Zrotation Xrotation Yrotation
                JOINT rMid2
                {
                  OFFSET -3.10165 -0.590103 1.0647
                  CHANNELS 3 Zrotation Xrotation Yrotation
                  End Site
                  {
                    OFFSET -2.48547 -0.328903 0.83742
                  }
                }
              }
              JOINT rRing1
              {
                OFFSET -8.82822 0.546677 1.51678
                CHANNELS 3 Zrotation Xrotation Yrotation
                JOINT rRing2
                {
                  OFFSET -2.60934 -0.819778 -0.0198488
                  CHANNELS 3 Zrotation Xrotation Yrotation
                  End Site
                  {
                    OFFSET -2.33842 -0.294052 0.168128
                  }
                }
              }
              JOINT rPinky1
              {
                OFFSET -8.27202 -0.0477905 -0.4584
                CHANNELS 3 Zrotation Xrotation Yrotation
                JOINT rPinky2
                {
                  OFFSET -1.82734 -0.647385 -0.700984
                  CHANNELS 3 Zrotation Xrotation Yrotation
                  End Site
                  {
                    OFFSET -1.69225 -0.51767 -0.607171
                  }
                }
              }
            }
          }
        }
      }
      JOINT lCollar
      {
        OFFSET 2.68224 19.2634 -4.8768
        CHANNELS 3 Zrotation Xrotation Yrotation
        JOINT lShldr
        {
          OFFSET 8.77824 -1.95073 1.46304
          CHANNELS 3 Zrotation Xrotation Yrotation
          JOINT lForeArm
          {
            OFFSET 28.1742 -1.7115 0.48768
            CHANNELS 3 Zrotation Xrotation Yrotation
            JOINT lHand
            {
              OFFSET 22.5879 0.773209 7.07136
              CHANNELS 3 Zrotation Xrotation Yrotation
              JOINT lThumb1
              {
                OFFSET 1.2192 -0.487915 3.41376
                CHANNELS 3 Zrotation Xrotation Yrotation
                JOINT lThumb2
                {
                  OFFSET 3.37035 -0.52449 3.41376
                  CHANNELS 3 Zrotation Xrotation Yrotation
                  End Site
                  {
                    OFFSET 1.78271 -1.18214 1.43049
                  }
                }
              }
              JOINT lIndex1
              {
                OFFSET 7.75947 0.938293 5.60832
                CHANNELS 3 Zrotation Xrotation Yrotation
                JOINT lIndex2
                {
                  OFFSET 2.54057 -0.884171 1.56538
                  CHANNELS 3 Zrotation Xrotation Yrotation
                  End Site
                  {
                    OFFSET 1.62519 -0.234802 1.16502
                  }
                }
              }
              JOINT lMid1
              {
                OFFSET 8.24714 1.18213 3.41376
                CHANNELS 3 Zrotation Xrotation Yrotation
                JOINT lMid2
                {
                  OFFSET 3.10165 -0.590103 1.0647
                  CHANNELS 3 Zrotation Xrotation Yrotation
                  End Site
                  {
                    OFFSET 2.48547 -0.328903 0.83742
                  }
                }
              }
              JOINT lRing1
              {
                OFFSET 8.82822 0.546677 1.51678
                CHANNELS 3 Zrotation Xrotation Yrotation
                JOINT lRing2
                {
                  OFFSET 2.60934 -0.819778 -0.0198488
                  CHANNELS 3 Zrotation Xrotation Yrotation
                  End Site
                  {
                    OFFSET 2.33842 -0.294052 0.168128
                  }
                }
              }
              JOINT lPinky1
              {
                OFFSET 8.27202 -0.0477905 -0.4584
                CHANNELS 3 Zrotation Xrotation Yrotation
                JOINT lPinky2
                {
                  OFFSET 1.82734 -0.647385 -0.700984
                  CHANNELS 3 Zrotation Xrotation Yrotation
                  End Site
                  {
                    OFFSET 1.69225 -0.51767 -0.607171
                  }
                }
              }
            }
          }
        }
      }
    }
  }
  JOINT rButtock
  {
    OFFSET -8.77824 4.35084 1.2192
    CHANNELS 3 Zrotation Xrotation Yrotation
    JOINT rThigh
    {
      OFFSET 0 -1.70687 -2.19456
      CHANNELS 3 Zrotation Xrotation Yrotation
      JOINT rShin
      {
        OFFSET 0 -36.8199 0.73152
        CHANNELS 3 Zrotation Xrotation Yrotation
        JOINT rFoot
        {
          OFFSET 0.73152 -45.1104 -5.12064
          CHANNELS 3 Zrotation Xrotation Yrotation
          End Site
          {
            OFFSET -1.1221 -3.69964 12.103
          }
        }
      }
    }
  }
  JOINT lButtock
  {
    OFFSET 8.77824 4.35084 1.2192
    CHANNELS 3 Zrotation Xrotation Yrotation
    JOINT lThigh
    {
      OFFSET 0 -1.70687 -2.19456
      CHANNELS 3 Zrotation Xrotation Yrotation
      JOINT lShin
      {
        OFFSET 0 -36.8199 0.73152
        CHANNELS 3 Zrotation Xrotation Yrotation
        JOINT lFoot
        {
          OFFSET -0.73152 -45.1104 -5.12064
          CHANNELS 3 Zrotation Xrotation Yrotation
          End Site
          {
            OFFSET 1.1221 -3.69964 12.103
          }
        }
      }
    }
  }
}
MOTION
Frames:	10
Frame Time:	0.00833333
0.0 0.0 0.0 0.0 0.0 0.0 0.0 0.0 0.0 0.0 0.0 0.0 0.0 0.0 0.0 0.0 0.0 0.0 0.0 0.0 0.0 0.0 0.0 0.0 0.0 0.0 0.0 0.0 0.0 0.0 0.0 0.0 0.0 0.0 0.0 0.0 0.0 0.0 0.0 0.0 0.0 0.0 0.0 0.0 0.0 0.0 0.0 0.0 0.0 0.0 0.0 0.0 0.0 0.0 0.0 0.0 0.0 0.0 0.0 0.0 0.0 0.0 0.0 0.0 0.0 0.0 0.0 0.0 0.0 0.0 0.0 0.0 0.0 0.0 0.0 0.0 0.0 0.0 0.0 0.0 0.0 0.0 0.0 0.0 0.0 0.0 0.0 0.0 0.0 0.0 0.0 0.0 0.0 0.0 0.0 0.0 0.0 0.0 0.0 0.0 0.0 0.0 0.0 0.0 0.0 0.0 0.0 0.0 0.0 0.0 0.0 0.0 0.0 0.0 0.0 0.0 0.0 0.0 0.0 0.0 0.0 0.0 0.0 0.0 0.0 0.0 0.0 0.0 0.0 0.0 0.0 0.0
120.799 83.466 -7.51819 -0.0 0.0 -0.0 0.0 0.0 0.0 0.0 -0.0 -0.0 -8.072185 8.718885 -71.807182 10.785093 4.96472 71.954626 0.0 0.0 0.0 0.0 0.0 0.0 -80.1661 68.371792 83.260848 17.024001 0.106223 -1.031405 -26.303304 -82.737795 -30.862045 1.192295 -3.78765 0.169188 4.417404 -4.400416 -0.512247 19.703892 -36.898081 -17.803925 -145.521835 -6.585001 118.766503 83.71513 -71.216578 23.335643 -36.036059 51.723116 29.832321 90.868105 -81.173871 63.158031 0.000273 0.036338 0.011416 1.201858 -26.584068 -3.121497 6.227694 18.789635 5.573717 -130.822794 -28.920982 -126.034154 159.220516 -48.028485 -170.415257 169.699543 -16.678836 -157.654403 3.489216 -56.510621 6.695184 -1.280847 -4.066818 -0.184819 166.631339 -4.304864 -89.77151 5.168348 -48.526412 -9.423176 13.870766 18.815147 -9.290772 169.633543 -7.355669 -113.77705 160.826363 -7.141801 -143.31627 -5.437757 2.938113 -0.730508 0.014868 -1.323148 0.415899 -0.089625 0.241632 -0.278441 25.537984 -38.087442 24.598474 -12.936418 44.257822 -10.724781 -180.0 75.749642 -0.0 -180.0 75.749642 -0.0 -4.919407 3.500227 -54.588129 101.768624 29.919538 -18.602333 -180.0 75.749642 -0.0 -180.0 75.749642 -0.0 5.48488 5.037637 68.865364 7.136889 -29.894633 -76.845979
120.234 83.7069 -7.257229999999999 -0.0 0.0 -0.0 -0.0 -4.771896 -180.0 -0.0 -4.771896 180.0 -7.473268 6.318393 -57.784007 9.315777 2.973102 57.954786 0.0 -0.0 -0.0 0.0 -0.0 -0.0 -142.973735 39.431617 147.390037 -151.976127 -2.301811 170.953719 3.929914 32.545513 0.420359 -4.547697 14.422413 0.079287 -93.743665 37.963835 53.548561 -30.067611 -7.367846 35.617876 -173.600814 -52.692785 119.892759 -58.289776 51.859086 54.100827 23.903801 -61.333833 1.399383 -165.093866 -5.213192 140.45997 -145.10847 3.679512 179.714986 -144.840279 76.784277 169.621681 12.252484 41.424931 10.280249 -79.713247 -52.813338 -76.81212 143.620413 38.233348 -148.080496 -94.002643 -84.675876 -68.341257 -172.890373 38.837018 -152.690041 -178.342757 7.245849 -145.338473 5.132087 4.978853 -1.005551 116.216781 -7.698362 -104.569884 152.105085 -18.556554 -121.367907 149.258695 -13.014293 -120.635639 160.09819 -4.901163 -142.968881 159.937139 -4.458192 -143.106699 -0.004561 0.876454 -0.275323 164.585112 -64.113666 178.326693 6.122172 -13.785508 5.752615 -48.148384 85.641734 12.183634 -0.0 0.0 -0.0 0.0 -0.0 0.0 3.278114 0.368279 29.076796 -91.852366 17.13118 23.404669 -0.0 0.0 -0.0 0.0 -0.0 0.0 -1.168563 -0.061658 -10.219716 14.931151 3.496798 5.429229
119.676 83.8698 -6.97903 -0.0 0.0 -0.0 -0.0 -4.771896 -180.0 -0.0 -4.771896 180.0 10.50515 4.498364 68.886613 -7.991713 8.18131 -68.727902 0.0 -0.0 -0.0 0.0 -0.0 -0.0 -155.417258 -2.951435 161.718542 12.81679 17.313084 18.111071 -167.566421 -5.631057 175.916675 6.768798 -20.230693 1.912483 0.567845 -0.561452 -0.084526 -124.746115 -17.022138 111.774331 10.211155 -18.05077 -4.56389 85.080079 -57.271232 41.704699 -8.41658 20.880424 5.645309 -6.203193 18.716174 2.411362 -145.122644 1.080237 -179.467674 22.556671 39.844778 -4.740546 -7.144637 -15.70735 -6.727898 -79.166262 -55.470786 -76.797083 150.168677 21.535282 -155.275413 -23.55565 -11.827409 -10.80375 -175.607426 -3.973671 -177.326761 12.956416 36.72477 -3.004616 174.088169 -11.753554 -89.875806 132.604357 12.631526 -65.995245 151.353117 -17.158427 -121.133109 -167.632474 -64.862373 -97.832409 11.032533 25.891784 -7.685441 119.924447 59.920665 -107.717111 145.12196 1.973689 179.748387 140.029712 -34.527134 172.717617 87.575606 -50.207376 85.929595 22.161302 -42.23218 23.590332 -0.0 0.0 -0.0 -0.0 -0.0 -0.0 7.081855 4.181059 77.332942 -151.579957 -27.88746 98.276681 -0.0 0.0 -0.0 -0.0 -0.0 -0.0 -7.081855 4.181059 -77.332942 151.579957 -27.88746 -98.276681
119.114 84.0414 -6.68974 -0.0 0.0 -0.0 -0.0 -4.771896 -180.0 0.0 -4.771896 -180.0 10.313685 4.208854 66.928732 -7.925228 7.840827 -66.764752 0.0 -0.0 -0.0 0.0 -0.0 -0.0 -155.460052 -3.227798 161.777534 23.198038 -15.362493 15.83025 101.808774 71.690393 -115.69631 -138.821511 68.020001 116.78582 -1.193499 1.174314 0.1953 -123.111881 -15.416627 110.253753 -138.493513 4.896353 114.8648 -18.697859 51.807858 11.728426 7.904304 -24.807577 -3.013399 -157.527039 17.629416 137.86723 -145.119466 0.267796 -179.212468 22.418661 34.842747 -5.122202 8.143703 25.599709 7.179334 -114.064694 -43.562981 -110.01198 159.220516 -48.028485 -170.415257 -2.863803 15.761291 -22.442298 -171.002274 82.416148 167.910966 6.366574 19.891269 -0.42888 121.36458 30.329582 -71.957921 -25.371871 -38.634093 -27.027419 145.338335 -6.264511 -118.677783 128.142789 32.544872 -112.142022 160.573436 -6.359341 -143.198121 177.044284 -49.187794 -140.885881 -0.003602 0.605735 -0.190285 -1.135382 -38.490061 4.722904 87.575606 -50.207376 85.929595 8.747216 -27.388691 10.488677 -0.0 0.0 -0.0 -0.0 -2.27635 -180.0 -4.055723 -2.993391 -143.675094 72.408322 -56.754181 -23.284793 -0.0 0.0 -0.0 -0.0 -2.27635 -180.0 4.055723 -2.993391 143.675094 -84.070464 -59.586838 15.423786
118.506 84.212 -6.37228 -0.0 0.0 -0.0 -0.0 -4.771896 -180.0 0.0 -4.771896 -180.0 -8.063956 8.6533 -71.432562 10.752387 4.907224 71.581577 0.0 -0.0 -0.0 0.0 -0.0 -0.0 -155.417258 -2.951435 161.718542 98.127956 -75.993146 75.587594 165.11178 -0.127704 166.646274 -95.255924 74.47317 75.76334 -2.608268 2.55464 0.457401 -26.829827 21.573164 24.992159 176.550355 -61.588449 114.664817 -59.398996 49.907471 54.730321 -175.766492 -50.334504 144.098384 5.469177 -0.508239 2.423004 -145.121954 1.975391 -179.748922 -27.756819 -74.9778 -59.306531 -145.173549 12.06758 -141.82295 -145.980353 14.502864 -142.397872 143.620413 38.233348 -148.080496 -24.954423 -24.939065 -6.720529 -177.301813 -50.275037 -174.430889 6.991775 21.701769 -0.588732 4.166296 4.057514 -0.783763 103.294987 7.521596 -94.489159 -9.087734 -15.965515 4.197453 5.086489 8.934313 -4.774897 159.365121 -2.685504 -142.597465 84.796986 64.043088 -79.792208 75.673382 -72.116249 92.828895 -21.478729 -43.152355 -2.587526 23.391137 -36.34947 22.493225 -32.943555 84.359743 -3.578559 -0.0 0.0 -0.0 -0.0 -2.27635 -180.0 -6.880793 -5.921355 -107.859822 -11.465574 25.060334 -64.504817 -0.0 0.0 -0.0 -0.0 -2.27635 -180.0 6.880793 -5.921355 107.859822 11.465574 25.060334 64.504817
117.90499999999999 84.4768 -6.05613 -0.0 0.0 -0.0 -0.0 -4.771896 -180.0 -0.0 -4.771896 -180.0 2.348711 19.742543 -170.817555 5.72704 19.065302 169.446286 -0.0 -0.0 0.0 -0.0 -0.0 0.0 -85.537448 68.182427 88.688908 5.843373 75.512119 13.59165 -89.965011 -75.613432 -111.641759 48.596287 -65.591705 35.268978 -160.052267 2.213243 88.877504 -69.843642 -2.455188 25.437338 -19.170572 24.114561 13.380841 -162.073752 5.454864 113.551196 23.903801 -61.333833 1.399383 -165.259247 -5.644365 140.502203 0.004873 1.771387 0.556475 -166.85447 -27.253186 175.344448 1.134951 3.04054 1.043633 -23.679042 -38.631449 -21.986429 159.220516 -48.028485 -170.415257 -2.863803 15.761291 -22.442298 179.73087 79.212988 177.178029 5.241036 16.539349 -0.191858 0.543938 0.536215 -0.086055 171.109657 -76.139234 -109.119351 77.667448 43.02965 -64.538509 -3.381009 4.495866 13.264648 160.573436 -6.359341 -143.198121 -1.661966 13.105202 -2.577866 145.108492 3.677793 -179.715527 -1.173092 -61.625877 30.001853 -1.134951 3.04054 -1.043633 150.307065 13.019817 143.850089 -0.0 0.0 -0.0 -0.0 -0.0 -0.0 7.081855 4.181059 77.332942 -151.579957 -27.88746 98.276681 -0.0 0.0 -0.0 -0.0 -0.0 -0.0 -7.081855 4.181059 -77.332942 151.579957 -27.88746 -98.276681
117.34499999999998 84.5037 -5.72949 -0.0 0.0 -0.0 -0.0 -4.771896 -180.0 -0.0 -4.771896 -180.0 -8.144544 9.765136 -77.762661 11.253376 5.904095 77.877376 0.0 -0.0 -0.0 0.0 -0.0 -0.0 -85.537448 68.182427 88.688908 5.843373 75.512119 13.59165 -89.965011 -75.613432 -111.641759 48.596287 -65.591705 35.268978 -169.561553 -7.243343 89.929286 -29.533484 -31.405303 5.178077 -95.098932 39.750292 80.124695 177.773204 -53.527856 118.810424 -161.153703 -8.160616 143.465095 -170.612829 -35.307185 143.321314 0.000474 0.063839 0.020056 -84.13694 78.779742 87.19348 1.134951 3.04054 1.043633 -157.410971 38.666958 -148.418616 159.220516 -48.028485 -170.415257 -2.863803 15.761291 -22.442298 179.73087 79.212988 177.178029 5.241036 16.539349 -0.191858 0.543938 0.536215 -0.086055 171.109657 -76.139234 -109.119351 77.667448 43.02965 -64.538509 -3.381009 4.495866 13.264648 153.32078 13.628946 -138.862343 38.796184 59.455471 -35.694854 145.121957 1.974539 179.748654 -22.617578 39.822426 4.959679 -1.134951 3.04054 -1.043633 150.307065 13.019817 143.850089 -0.0 0.0 -0.0 -0.0 -2.27635 -180.0 -6.880793 -5.921355 -107.859822 -11.465574 25.060334 -64.504817 -0.0 0.0 -0.0 -0.0 -2.27635 -180.0 6.880793 -5.921355 107.859822 11.465574 25.060334 64.504817
116.78900000000002 84.5027 -5.36799 -0.0 0.0 -0.0 -0.0 -4.771896 -180.0 0.0 -4.771896 180.0 9.579663 3.263211 60.169506 -7.606876 6.687135 -59.997951 0.0 0.0 0.0 0.0 0.0 0.0 -155.504155 -3.514523 161.838528 98.113498 -75.898646 75.658498 3.234211 68.736305 -34.006903 169.726336 -19.105628 143.500061 5.189684 -5.174682 -0.567148 -131.726399 -27.140698 117.71676 -19.170572 24.114561 13.380841 24.995569 -40.378812 -1.932212 -0.057679 0.167876 0.032027 -166.715424 -5.416573 143.400867 0.004874 1.770919 0.556328 -164.283979 17.308355 169.683358 8.580128 27.211748 7.533938 13.846562 44.324876 6.91166 143.620413 38.233348 -148.080496 -94.002643 -84.675876 -68.341257 -157.077977 -42.980659 -148.612698 91.489047 74.496892 -72.166553 4.034931 3.931563 -0.75474 136.474387 -39.128706 -116.299226 172.896918 -51.894009 -120.180804 -179.005234 -51.126997 -100.963983 160.304423 -5.531943 -143.069504 -168.140846 -65.978968 -130.585088 145.121957 1.974539 179.748654 -22.617578 39.822426 4.959679 159.761954 65.345539 151.084316 147.226736 11.735976 140.10453 -0.0 0.0 -0.0 -0.0 -0.0 -0.0 -4.919407 3.500227 -54.588129 88.891524 33.647607 -8.266405 -0.0 0.0 -0.0 -0.0 -0.0 -0.0 4.919407 3.500227 54.588129 -88.891524 33.647607 8.266405
116.27400000000002 84.4821 -5.00166 -0.0 0.0 -0.0 -0.0 -4.771896 -180.0 -0.0 -4.771896 180.0 -2.189902 0.70575 -13.10212 2.292863 -0.190556 13.119422 0.0 -0.0 -0.0 0.0 -0.0 -0.0 -142.973735 39.431617 147.390037 -151.976127 -2.301811 170.953719 3.929914 32.545513 0.420359 -4.547697 14.422413 0.079287 -178.927535 -16.453687 89.421826 -117.297493 17.439591 55.047693 -160.015165 -33.011829 122.698522 -72.617111 55.201392 66.32661 -0.057679 0.167876 0.032027 -166.800772 -5.678547 143.427152 -145.121957 1.974539 -179.748654 -143.962233 -11.936352 -177.20754 4.763426 13.903473 4.303395 -25.535606 -39.480632 -23.846783 155.417258 -2.951435 -161.718542 159.644303 -17.676092 -162.174913 -177.875906 19.209142 -146.663621 -174.913186 -3.703891 -145.068951 169.572075 -7.253889 -89.92958 177.248066 -14.077596 -91.925797 153.453439 -21.067684 -121.744506 2.373971 38.088517 -3.630928 36.036059 51.723116 -29.832321 -7.59486 -20.728235 4.295831 145.122644 1.080631 179.467798 143.490036 -15.368322 176.842413 139.224096 -4.39683 136.390672 143.886465 9.025838 141.947971 -0.0 0.0 -0.0 -0.0 -0.0 -0.0 7.291581 4.831253 83.275504 -5.592904 1.475848 -84.841974 -0.0 0.0 -0.0 -0.0 -0.0 -0.0 -7.291581 4.831253 -83.275504 5.592904 1.475848 84.841974
